# xmcd
#
# Track frame offsets: 
#        182
#        13707
#        23657
#        35357
#        47082
#        59932
#        71757
#        82307
#        94970
#        105632
#        115220
#        127820
#        139170
#        153157
#        168632
#        180857
#
# Disc length: 2568 seconds
#
# Revision: 4
# Processed by: cddbd v1.5.2PL0 Copyright (c) Steve Scherf et al.
# Submitted via: ExactAudioCopy v0.99pb5
#
DISCID=d90a0610
DTITLE=Various Artist - Country Gold - The Stars and Hits of Country and 
DTITLE=Western Music
DYEAR=1900
DGENRE=Country
TTITLE0=Don Williams - Where do we go from here?
TTITLE1=Johnny Cash And The Tennessee Two - Hey, Porter
TTITLE2=Donna Fargo - The happiest girl in the whole U.S.A.
TTITLE3=Don Gibson - Oh lonesome me
TTITLE4=Conway Twitty - Next in line
TTITLE5=Johnny Horton - When it's springtime in Alaska (it's forty bel
TTITLE5=ow)
TTITLE6=Patsy Cline - Gotta lot of rhythm in my soul
TTITLE7=Stonewall Jackson - B.J. the D.J.
TTITLE8=Kenny Rogers and The First Edition - She even woke me up to say 
TTITLE8=goodbye
TTITLE9=Lynn Anderson - Snowbird
TTITLE10=Gene Autry - Goodnight Irene
TTITLE11=Frankie Laine - Answer me
TTITLE12=Lefty Frizzell - Always late (with your kisses)
TTITLE13=Anne Murray - There goes my everything
TTITLE14=Hank Williams - Your cheatin' hearth
TTITLE15=Waylon Jennings - Crying
EXTD=
EXTT0=
EXTT1=
EXTT2=
EXTT3=
EXTT4=
EXTT5=
EXTT6=
EXTT7=
EXTT8=
EXTT9=
EXTT10=
EXTT11=
EXTT12=
EXTT13=
EXTT14=
EXTT15=
PLAYORDER=
